<svg xmlns="http://www.w3.org/2000/svg" xml:space="preserve" width="1220.5466" height="253.1239" viewBox="0 0 1220.5466 253.1239"><g style="stroke-width:1.34384"><g style="stroke-width:1.34384"><path d="M0 0c-17.386 0-31.363 13.508-31.363 29.998S-17.386 59.826 0 59.826c15.98 0 29.104-11.164 31.15-25.737v-.426h.084c.086-1.15.17-2.472.17-3.665C31.404 13.508 17.428 0 0 0m8.564 77.938v65.919H31.15V68.605c-6.435 4.772-14.318 8.096-22.67 9.333zm-78.49 42.483c-17.387 0-31.405 13.423-31.405 29.913 0 16.492 14.018 29.829 31.405 29.829 17.386 0 31.405-13.337 31.405-29.829 0-16.49-14.019-29.913-31.405-29.913m120.421 96.474H31.15V162.18H8.564v36.861h-19.302v-.043h-46.32v36.604h-19.26v-36.604h-67.752v-18.41h34.132c-6.989-8.266-11.292-18.749-11.292-30.254 0-26.887 23.052-48.577 51.304-48.577 28.209 0 51.135 21.69 51.135 48.577 0 11.505-4.22 21.988-11.122 30.254h19.175V77.938h2.343c-24.203-3.836-42.74-23.778-42.74-47.94 0-26.931 22.883-48.705 51.135-48.705 28.294 0 51.177 21.774 51.177 48.705 0 2.813-.255 5.668-.682 8.352z" style="fill:#e60013;fill-opacity:1;fill-rule:nonzero;stroke:none;stroke-width:1.34384" transform="matrix(.99218 0 0 -.99218 142.944 233.76)"/></g><path d="M186.467 519.015h85.182v-27.102h-85.182zm51.645-45.382h52.925v90.679H271.69v-26.974h-85.223v27.954h-19.261V473.59h19.261v.043h32.385V437.37h-87.823v-18.364h180.846v18.364h-73.763z" style="fill:#e60013;fill-opacity:1;fill-rule:nonzero;stroke:none;stroke-width:1.34384" transform="matrix(.99218 0 0 -.99218 82.446 561.253)"/><g style="stroke-width:1.34384"><path d="M0 0h113.562v-54.628h19.216V0h.128v18.324H0Z" style="fill:#e60013;fill-opacity:1;fill-rule:nonzero;stroke:none;stroke-width:1.34384" transform="matrix(.99218 0 0 -.99218 239.763 198.923)"/></g><g style="stroke-width:1.34384"><path d="M0 0h-19.261v-63.791h135.719v18.365H0Z" style="fill:#e60013;fill-opacity:1;fill-rule:nonzero;stroke:none;stroke-width:1.34384" transform="matrix(.99218 0 0 -.99218 446.464 153.387)"/></g><g style="stroke-width:1.34384"><path d="M0 0c-17.386 0-31.449 13.423-31.449 29.828 0 16.533 14.063 29.913 31.449 29.913 17.342 0 31.362-13.38 31.362-29.913C31.362 13.423 17.342 0 0 0m88.122 97.921H68.903V79.215H12.144v36.007H-7.202V79.215h-67.029V60.893h34.771c-7.371-8.396-11.718-19.219-11.718-31.065 0-26.846 22.883-48.62 51.178-48.62 28.251 0 51.048 21.774 51.048 48.62 0 11.846-4.261 22.669-11.633 31.065h29.488v-91.149h19.219v55.567h28.549v18.323H88.122Z" style="fill:#e60013;fill-opacity:1;fill-rule:nonzero;stroke:none;stroke-width:1.34384" transform="matrix(.99218 0 0 -.99218 464.221 114.787)"/></g><g style="stroke-width:1.34384"><path d="M0 0c-17.726 0-32.085 13.678-32.085 30.425C-32.085 47.3-17.726 60.977 0 60.977c17.644 0 31.961-13.677 31.961-30.552C31.961 13.678 17.644 0 0 0m91.531 97.837H70.269V80.749h-57.91v33.876H-7.37V80.749h-68.307V61.062h35.367c-7.457-8.607-11.93-18.493-11.93-30.637 0-24.175 18.214-44.324 42.313-48.737v-35.167c-6.094-.426-15.426-.638-21.177-.638h-43.465v-19.645h25.183c20.539 0 40.738.511 60.381 1.491 19.731 1.024 31.789 2.088 48.365 3.282v18.748c-8.138-.553-10.695-1.108-19.986-1.618-9.289-.512-18.791-.938-28.465-1.322v35.059c23.559 4.779 41.207 24.707 41.207 48.547 0 12.144-4.431 22.03-11.972 30.637h30.125v-164.823h21.262v129.54h30.852v21.306H91.531Z" style="fill:#e60013;fill-opacity:1;fill-rule:nonzero;stroke:none;stroke-width:1.34384" transform="matrix(.99218 0 0 -.99218 904.172 114.914)"/></g><g style="stroke-width:1.34384"><path d="M0 0h23.775v-64.258h20.966V71.29H23.775l-.552-52.797H-.556L0 52.712h-20.966V-56.375H0Z" style="fill:#e60013;fill-opacity:1;fill-rule:nonzero;stroke:none;stroke-width:1.34384" transform="matrix(.99218 0 0 -.99218 763.894 89.928)"/></g><g style="stroke-width:1.34384"><path d="M0 0h101.034v-70.438H122v92.084H0Z" style="fill:#e60013;fill-opacity:1;fill-rule:nonzero;stroke:none;stroke-width:1.34384" transform="matrix(.99218 0 0 -.99218 687.494 182.349)"/></g><path d="M621.536 452.966h-60.425v24.715h60.425zm20.965 75.68h-20.965v-29.359h-60.425v29.359h-21.007v-96.942h102.397z" style="fill:#e60013;fill-opacity:1;fill-rule:nonzero;stroke:none;stroke-width:1.34384" transform="matrix(.99218 0 0 -.99218 82.446 561.253)"/><g style="stroke-width:1.34384"><path d="M0 0h41.931v-53.734h20.667V71.631H41.931V18.324H0Z" style="fill:#e60013;fill-opacity:1;fill-rule:nonzero;stroke:none;stroke-width:1.34384" transform="matrix(.99218 0 0 -.99218 1157.973 89.801)"/></g><g style="stroke-width:1.34384"><path d="m0 0 10.909 15.555-59.102 44.954v32.214H4.006v17.898h-119.442V92.723h46.491V61.02L-125.15-6.221l13.849-12.699 52.754 63.833z" style="fill:#e60013;fill-opacity:1;fill-rule:nonzero;stroke:none;stroke-width:1.34384" transform="matrix(.99218 0 0 -.99218 1157.127 146.582)"/></g><path d="M1126.445 329.221h-81.815v54.459h81.815zm-102.481-18.323h123.106v91.189h-123.106z" style="fill:#e60013;fill-opacity:1;fill-rule:nonzero;stroke:none;stroke-width:1.34384" transform="matrix(.99218 0 0 -.99218 82.446 561.253)"/></g></svg>