<svg xmlns="http://www.w3.org/2000/svg" width="500pt" height="101.17546pt" viewBox="0 0 499.99999 101.17546"><path d="M362.968 0c-15.579 0-27.312 10.074-27.312 23.427 0 13.36 11.733 23.433 27.312 23.433 15.572 0 27.313-10.073 27.313-23.433C390.281 10.074 378.54 0 362.968 0zM173.936 2.632V56.96h-48.431V16.157h36.05V4.527h-51.67V68.59h50.636l13.415-9.984v42.568h15.613V38.241h16.585v-11.63H189.55V2.631h-15.613zm117.1 0v98.543h9.383V36.428h13.76v-8.006h-13.76V2.632h-9.384zm181.15 0v19.891h-10.627v8.007h10.626v28.084h9.177V2.632h-9.177zm17.94 0v59.076h9.192V2.632h-9.192zm-240.701.406c-16.247 0-29.407 13.168-29.407 29.401 0 16.24 13.16 29.407 29.407 29.407 16.233 0 29.407-13.167 29.407-29.407 0-16.233-13.174-29.4-29.407-29.4zM9.144 4.534v56.934h31.101v21.751H0V94.85h96.119V83.22H55.866V61.467h15.495l15.614-11.624V4.534H9.144zm408.49.11v8.006h29.574v13.147h-29.574v29.056h43.925V46.84h-34.54V33.693h29.573V4.643h-38.958zm-54.666 3.011c10.473 0 18.376 6.787 18.376 15.772 0 8.992-7.903 15.77-18.376 15.77-10.487 0-18.383-6.778-18.383-15.77 0-8.985 7.896-15.772 18.383-15.772zm-113.543 3.693c11.375 0 20.609 9.44 20.609 21.091 0 11.651-9.234 21.09-20.61 21.09-11.382 0-20.608-9.439-20.608-21.09s9.226-21.09 20.609-21.09zM24.75 16.158h46.611V49.85H24.75V16.157zm294.03 34.347v8.014h39.489v6.283h-32.026v8.007h64.059v5.94h-64.06v21.848h73.444V92.59H335.62V86.65h64.065v-21.85h-32.032V58.52h39.488v-8.014H318.78zm142.78 8.412-38.434 42.258h11.246l27.187-29.89 27.182 29.89H500l-38.44-42.258z" style="stroke-width:1.76389;fill:#cd143e;fill-opacity:1"/></svg>