<svg xmlns="http://www.w3.org/2000/svg" width="258.91388mm" height="115.38205mm" viewBox="0 0 258.91388 115.38205"><g style="stroke-width:.151648"><g style="stroke-width:.151648"><path d="M0 0v.128Zm.89 2.888h.024l1.239-.018.026.74-1.31.05.021 1.984h.024l1.418-.023.01.748L0 6.389v-.02h-.027V-.028h.038l2.321-.02.01.75L.869.75Zm-6.581.909c-.123-.137-.355-.229-.662-.229v2.108l.124-.055c.133 0 .236 0 .334-.058.106-.018.166-.084.236-.2a.458.458 0 0 0 .128-.306c.04-.144.062-.317.062-.494 0-.374-.07-.627-.222-.766m.885-.201c.139.286.237.653.237 1.102 0 .608-.157 1.061-.454 1.358-.247.221-.596.333-1.09.333h-1.141v-.02h-.037V-.028l.906-.02V.055l.032 2.928 1.141-3.031h.952L-5.461 3.07c.279.09.488.232.655.526m-8.046-2.42c-.106-.329-.294-.464-.571-.464-.313 0-.487.157-.61.502-.086.345-.144.992-.144 1.946 0 .999.058 1.683.144 2.005.11.324.297.479.61.479.277 0 .482-.165.592-.53.096-.356.156-1.089.156-2.178 0-.866-.07-1.443-.177-1.76m.634 4.746c-.286.367-.68.533-1.238.533-.609 0-1.045-.233-1.33-.714-.244-.474-.365-1.281-.365-2.429 0-1.271.121-2.156.375-2.653.275-.513.73-.787 1.36-.787.607 0 1.048.256 1.292.735.275.479.406 1.273.406 2.439 0 .765-.038 1.372-.116 1.797-.088.463-.209.833-.384 1.079m-9.732-.278v.019zM-20.941 0v.128zm1.84 6.354v-.017zm-2.849.015h-.023v-.748l1.032-.026-.021-5.623.874-.02V0l.033 5.621.954-.026.023.774-2.872.02zm-4.756-2.912c-.193.203-.337.354-.46.479a1.823 1.823 0 0 0-.26.331.962.962 0 0 0-.162.557c0 .24.073.443.221.59.15.149.324.249.53.249.23 0 .454-.108.729-.3l.035-.04v.899h-.029l.011.038a2.191 2.191 0 0 1-.899.203c-.449 0-.828-.126-1.093-.442-.28-.297-.396-.698-.396-1.197 0-.375.068-.69.204-.915a1.43 1.43 0 0 1 .32-.439c.151-.194.338-.379.545-.582a4.34 4.34 0 0 0 .367-.367 3.49 3.49 0 0 0 .206-.333c.116-.174.166-.368.166-.598 0-.24-.083-.472-.198-.628-.121-.136-.313-.212-.541-.212-.253 0-.534.097-.832.336l-.041.019V.208c.268-.246.61-.336.994-.336.444 0 .801.183 1.095.494.279.32.441.735.441 1.224 0 .355-.071.674-.205.942-.138.261-.382.559-.748.925m-13.911 2.912h-.033v-.748l1.025-.026v-.05l-.028-5.573.912-.02.012 5.669.954-.026.027.774-2.869.02zm-6.3-6.397h-.011zm1.282 4.004c0-.358.01-.73.061-1.106.008-.301.062-.599.075-.896a21.736 21.736 0 0 1-.544 1.868l-.874 2.527-.838.02v-.02h-.029V-.028l.885-.02V0l-.013 2.783v.2c-.005.068-.016.108-.016.177l-.052.776-.028.532c.063-.279.128-.551.206-.79.069-.269.148-.559.253-.808l.975-2.918h.844l.022 6.417-.896.02zm-6.721-.38zm.163-2.91zM-54.505 0v.128zm2.289 5.644v-.023l-.018.023zm.023.71v-.007zm-1.409-.733h1.409l.035.748-2.347.02v-.02h-.038V-.028h.052l2.298-.02.035.75-1.474.048v.009l.03 2.129 1.246-.009.036.731-1.312.05v.018zm-5.356-5.649h.079v-.01zM-63.269 0l.058.643zm4.412-.028-.05.48-.523 5.917-.781.02-.53-2.578-.1-.457-.098-.699-.116-.732c-.055.309-.101.609-.143.87-.052.326-.135.651-.203.981l-.553 2.595-.786.02v-.02h-.022l-.54-6.397h.091l.776-.02.256 4.159c.03-.252.058-.515.1-.757.064-.308.135-.649.183-.958l.521-2.434.62-.01.569 2.811.033.22.115.585c.021.092.051.168.051.283l.045.283.025-.639.033-.857c0-.069.015-.106.015-.212 0-.077 0-.172.01-.279l.141-2.175.861-.02-.005.02zM-68.995 0v.128zm1.849 6.354v-.007zm-2.855.015h-.02v-.748l1.026-.026-.022-5.623.887-.02v.125l.032 5.544.952-.026.027.774-2.882.02zm-5.153-2.572c-.123-.137-.362-.229-.679-.229v2.108l.125-.055c.125 0 .233 0 .348-.058.091-.018.174-.084.232-.2.057-.057.1-.173.138-.306.023-.144.045-.317.045-.494 0-.374-.083-.627-.209-.766m.869-.201c.154.286.241.653.241 1.102 0 .608-.161 1.061-.447 1.358-.247.221-.612.333-1.092.333h-1.153v-.02h-.024V-.028l.893-.02.034 3.031L-74.7-.048h.957l-1.194 3.118c.285.09.494.232.652.526M-81.02-.028h.126v-.01zm-2.118 1.926.019.143.161.664c.092.455.155.863.228 1.244.051.318.075.636.121.924a19.06 19.06 0 0 1 .297-1.968l.168-1.007zm0-.01h.166zM-84.334 0h-.013l.254 1.201zm3.229 1.101-1.13 5.268-.713.02v-.02h-.017l-1.419-6.397h.166l.7-.02.279 1.272 1.257-.023.222-1.239.879-.01v.02zm-8.194 2.696c-.127-.137-.356-.201-.698-.201v2.048l.085-.023c.292 0 .498-.076.62-.275.136-.156.2-.433.2-.783 0-.374-.064-.646-.207-.766m-.456 2.592h-1.141v-.02h-.036V-.028l.892-.02.043 2.852c.453-.011.827.049 1.1.16.5.256.764.81.764 1.669 0 .587-.126 1.043-.393 1.346-.25.281-.673.41-1.229.41m-5.733-2.793zm.158-2.91zM-97.658 0v.128zm2.306 5.644v-.023l-.011.023zm.022.71v-.007zm-1.433-.733h1.433l.036.748-2.364.02v-.02h-.019V-.028h.045l2.302-.02.036.75-1.485.048v.009l.016 2.129 1.275-.009.02.731-1.311.05v.018zm-6.592-4.397c-.182-.299-.521-.465-1.032-.474v4.894l.085-.023c.466 0 .771-.181.955-.557.171-.347.254-1.03.254-1.999 0-.918-.086-1.541-.262-1.841m.547 4.688a1.414 1.414 0 0 1-.557.365 2.802 2.802 0 0 1-.846.112h-1.076v-.02h-.022V-.028l.727-.02c.825 0 1.403.152 1.734.422.251.233.44.559.558 1.001a7.82 7.82 0 0 1 .175 1.716c0 .777-.046 1.358-.165 1.752-.103.445-.276.801-.528 1.069" style="fill:#231f20;fill-opacity:1;fill-rule:nonzero;stroke:none;stroke-width:.151648" transform="matrix(2.3263 0 0 -2.3263 246.16 115.084)"/></g><g style="stroke-width:.151648"><path d="M0 0v31.746h-12.812V14.102C-6.658 8.754-2.596 3.761 0 0" style="fill:#231f20;fill-opacity:1;fill-rule:nonzero;stroke:none;stroke-width:.151648" transform="matrix(2.3263 0 0 -2.3263 133.82 77.168)"/></g><g style="stroke-width:.151648"><path d="M0 0c.018-.021 12.432 0 12.432 0C4.837 18.234-12.12 27.557-12.12 27.557c-7.441 3.967-16.9 7.021-30.648 7.59V0h12.39v22.741S-10.777 19.222 0 0" style="fill:#231f20;fill-opacity:1;fill-rule:nonzero;stroke:none;stroke-width:.151648" transform="matrix(2.3263 0 0 -2.3263 99.49 87.48)"/></g><g style="stroke-width:.151648"><path d="M0 0c-2.824-2.001-6.585-3.105-10.691-3.105-3.013 0-5.829.616-8.216 1.678-2.408 1.113-4.428 2.66-5.723 4.714-.861 1.371-1.384 2.968-1.363 4.622-.021 1.676.502 3.276 1.363 4.622.859 1.37 2.048 2.546 3.453 3.48 2.809 1.846 6.461 2.918 10.486 2.918 3.889-.01 7.472-.98 10.242-2.773l8.66 6.889c-5.134 2.708-11.726 4.391-18.902 4.391-6.426 0-12.339-1.326-17.171-3.543-4.868-2.202-8.613-5.294-10.763-8.712-1.445-2.302-2.199-4.711-2.209-7.272.01-2.535.764-4.971 2.209-7.245 1.437-2.299 3.574-4.434 6.292-6.26 5.41-3.637 13.091-5.992 21.642-5.979 7.431-.013 14.202 1.769 19.405 4.629z" style="fill:#231f20;fill-opacity:1;fill-rule:nonzero;stroke:none;stroke-width:.151648" transform="matrix(2.3263 0 0 -2.3263 238.643 63.824)"/></g></g></svg>