<svg xmlns="http://www.w3.org/2000/svg" width="326.239" height="100.943" viewBox="0 0 86.317 26.708"><path fill="#544436" d="m11.57 11.855-.205-9.459a11.075 11.075 0 0 0-.061-1.073c-.116-.5-.343-.823-.694-.994h1.337s.599 0 1.102-.004a1.084 1.084 0 0 0-.58.696c-.075.266-.119.65-.13 1.192l-.201 12.915c-.004.18-.03.29-.04.346-.07-.036-.18-.11-.376-.33 0 0-10.213-11.262-10.213-11.193l.09 8.789c.04 1.523.301 2.312.825 2.508H1.9l-.814-.054c-.015 0-.564.026-1.086.039.327-.18.522-.593.613-1.294.006-.08.026-.302.04-1.426L.814.397C.82.219.83.114.844.043c.086.078.217.222.413.472.698.856 10.313 11.34 10.313 11.34zm29.854 1.725c-1.604-1.406-2.42-3.44-2.42-6.057 0-2.386.765-4.282 2.278-5.612C42.686.644 44.516 0 46.718 0c.955 0 1.851.069 2.614.21.338.074.951.187 1.841.33 0 .015.04.015.065.015 0 .089-.045.503-.045.503l-.055.614c0-.011-.01.81-.03 1.438-.252-1.048-1.007-1.802-2.252-2.238a6.997 6.997 0 0 0-2.37-.391c-1.83 0-3.227.659-4.147 1.964-.826 1.153-1.253 2.8-1.253 4.861 0 2.315.68 4.219 2.027 5.65 1.196 1.27 2.539 1.905 4.002 1.905.826 0 1.454-.062 1.89-.178.59-.143 1.102-.457 1.54-.897.317-.323.522-.72.668-1.147-.04.634-.135 1.267-.311 2.001-.066.196-.186.363-.362.433-.66.3-1.74.466-3.213.466-2.43 0-4.42-.678-5.903-1.96zm-20.611-.86c-.082 0-.127.085-.167.249-.12.616-.367 1.036-.784 1.206-.291.111-.834.16-1.644.16-.835 0-1.373-.072-1.614-.228-.226-.168-.362-.537-.383-1.113V8.89c1.534.304 2.826.935 3.576-1.413-1.107.908-2.369.597-3.576.511V3.277c0-.112.036-.167.1-.167 1.268 0 2.052.015 2.364.03.68.096 1.082.284 1.228.597.07.157.095.34.095.59 0 .14.05.216.146.216.055 0 .095-.064.12-.176.05-.431.081-.784.085-1.086.036-.17.057-.336.097-.492a1.63 1.63 0 0 0 .045-.295c0-.082-.026-.122-.055-.122a.215.215 0 0 0-.136.04.28.28 0 0 1-.116.04c-.186.03-.438.042-.744.073h-3.973c.041 0-.19 0-.699-.03-.508-.013-.92-.013-1.247-.013-.176 0-.277.043-.277.143 0 .065.045.094.142.094.226 0 .427.015.592.056.454.082.695.411.74.93.014.363.03 1.55.03 3.568v.85c-.523.171-1.015.543-1.443 1.212a2.885 2.885 0 0 1 1.442-.556v1.396c0 1.946-.029 3.148-.084 3.578-.075.54-.237.832-.504.898-.215.032-.382.072-.492.072-.106 0-.156.033-.156.109 0 .06.086.116.266.116.217 0 .543-.014 1.012-.036.477-.02.698-.033.678-.033 0 0 .442.012 1.347.069.906.03 1.881.055 2.932.055.347 0 .584-.025.694-.055.095-.043.18-.177.236-.38a5.779 5.779 0 0 0 .227-1.6c0-.163-.041-.249-.1-.249zm65.08.282c-.266 2.839-2.996 5.223-6.189 5.086-1.65-.065-2.645-.91-2.645-.91s-.684-.527-1.016-.92a35.094 35.094 0 0 1-1.035-1.31c.2-.014.482-.018.82-.036.471-.02.693-.033.683-.033-.015 0 .437.012 1.337.069.905.03 1.887.055 2.931.055.353 0 .594-.025.685-.055.11-.043.192-.177.241-.38a6.007 6.007 0 0 0 .232-1.6c0-.163-.042-.249-.1-.249-.08 0-.132.086-.157.25-.115.616-.387 1.036-.78 1.206-.305.111-.854.16-1.655.16-.848 0-1.382-.072-1.613-.228-.236-.168-.363-.537-.397-1.113V8.147c.734-.258 1.523-.43 2.363-.43 1.709 0 3.48.447 4.395 1.076.522.38.926.867 1.228 1.287 0 0 .839 1.066.672 2.922zM69.99 7.925c-.302.238-.744.363-1.283.363-.889 0-1.477-.094-1.788-.305-.082-.05-.112-.134-.112-.234V1.546c0-.135.041-.205.136-.238.232-.083.604-.11 1.136-.11.915 0 1.634.334 2.167 1.007.528.652.8 1.59.8 2.792 0 1.412-.357 2.392-1.056 2.928m9.615-1.31a6.31 6.31 0 0 0-2.37.468V3.277c0-.112.035-.167.101-.167 1.278 0 2.068.015 2.37.03.677.096 1.095.284 1.226.597.065.157.105.34.105.59 0 .14.05.216.141.216.056 0 .101-.064.116-.176.055-.431.08-.784.095-1.086.015-.17.04-.336.082-.492.044-.157.064-.252.064-.295 0-.082-.03-.122-.075-.122a.208.208 0 0 0-.126.04c-.055.033-.085.04-.121.04-.176.03-.433.042-.735.073h-3.961c.035 0-.206 0-.72-.03-.501-.013-.915-.013-1.236-.013-.186 0-.277.043-.277.143 0 .065.04.094.127.094.24 0 .437.015.592.056.458.082.714.411.745.93.03.363.03 1.55.03 3.568v.66a6.754 6.754 0 0 0-2.227 3.359c.306-.84 1.116-1.73 2.227-2.44v1.323c0 1.946-.03 3.148-.081 3.578-.08.54-.236.832-.503.898a2.19 2.19 0 0 1-.357.044c-.135-.162-.276-.369-.426-.558-.142-.231-2.866-4.156-3.994-5.752C71.794 6.977 72.483 5.51 72.483 4c0-1.096-.396-1.945-1.176-2.589-.709-.539-1.735-.827-3.123-.827-.21 0-.594.004-1.152.028-.547.032-.849.032-.88.032.031 0-.195 0-.694-.032a26 26 0 0 0-1.226-.028c-.186 0-.291.06-.291.168 0 .073.06.113.154.113.228 0 .414.013.57.061.457.095.702.455.734 1.08.034.406.044 1.778.044 4.086v3.34c0 2.26-.04 3.63-.095 4.13-.06.62-.226.97-.488 1.027-.222.051-.387.087-.493.087-.095 0-.16.02-.16.095 0 .108.095.163.266.163.298 0 .83-.022 1.61-.055-.04 0 .195 0 .728.026.534.025.991.029 1.388.029.176 0 .256-.055.256-.163 0-.076-.035-.095-.125-.095-.197 0-.458-.036-.784-.09-.368-.053-.6-.411-.659-1.023-.055-.561-.081-1.924-.081-4.101v-.448c0-.091.03-.135.112-.135h2.095c.086 0 .162.025.217.104.754 1.097 4.816 7.25 5.833 8.3 1.397 1.445 3.127 2.037 5.073 2.037 3.576-.034 5.913-2.976 6.165-6.427.277-3.59-3.007-6.278-6.697-6.278M31.26 3.317l3.44 9.353h.07c.7-2.092 1.58-4.895 2.66-8.413.131-.437.182-.79.182-1.056 0-.322-.317-.482-.975-.482-.101 0-.152-.03-.152-.124 0-.07.096-.113.292-.113.357 0 .744 0 1.162.012.406.03.603.03.598.03.005 0 .186 0 .554-.03.351-.012.643-.012.843-.012.161 0 .243.036.243.1 0 .076-.14.113-.433.152-.125.029-.237.044-.307.055-.372.138-.739.733-1.126 1.778-.835 2.465-1.89 5.523-3.174 9.21-.235.617-.397.994-.472 1.17-.08.145-.175.239-.26.239-.137 0-.314-.295-.519-.86l-3.39-9.164h-.034l-3.615 9.159c-.232.57-.423.865-.564.865-.13 0-.337-.45-.603-1.305l-3.083-9.765c-.222-.714-.537-1.137-.945-1.302a3.178 3.178 0 0 0-.784-.08c-.101 0-.156-.044-.156-.136 0-.073.095-.116.281-.116.353 0 1.036.012 2.037.043-.01 0 .2 0 .623-.03.432-.013.82-.013 1.161-.013.202 0 .302.043.302.113 0 .095-.05.124-.165.124-.312 0-.54.027-.684.095-.146.065-.206.192-.206.387 0 .121.1.623.305 1.528.162.629.936 3.294 2.324 7.975h.04l3.67-9.4c.192-.515.333-.78.434-.78.1 0 .246.265.427.793zM52.582 8.26c0 1.88.526 3.408 1.602 4.568 1.027 1.169 2.33 1.74 3.924 1.74 1.135 0 2.132-.343 2.967-1.044 1.201-.985 1.8-2.515 1.8-4.62 0-1.887-.54-3.395-1.605-4.537-.98-1.045-2.198-1.553-3.646-1.553-1.498 0-2.7.463-3.605 1.364-.96.969-1.437 2.33-1.437 4.082zm-1.646.431c0-1.568.54-2.968 1.62-4.212 1.283-1.487 2.997-2.219 5.19-2.219 1.985 0 3.595.53 4.861 1.634 1.288 1.134 1.932 2.65 1.932 4.534 0 1.898-.624 3.485-1.887 4.752-1.311 1.335-2.976 2.006-5.007 2.006-2.193 0-3.913-.714-5.139-2.125-1.046-1.211-1.57-2.665-1.57-4.37M21.259 26.154c.645 0 1.182-.196 1.64-.613.694-.608 1.026-1.644 1.026-3.078 0-1.116-.257-2.061-.81-2.841-.628-.86-1.473-1.293-2.55-1.293-.994 0-1.729.357-2.216 1.082-.408.628-.62 1.443-.62 2.494 0 1.156.293 2.117.876 2.907.653.89 1.518 1.342 2.654 1.342zm-.477.554c-1.509 0-2.69-.5-3.55-1.479-.719-.83-1.086-1.826-1.086-2.993 0-1.135.367-2.117 1.086-2.95.86-1.006 2.087-1.504 3.66-1.504 1.388 0 2.495.361 3.334 1.086.875.754 1.313 1.825 1.313 3.168 0 1.388-.442 2.523-1.327 3.374-.891.87-2.032 1.298-3.43 1.298m7.633-3.793v-1.664c0-1.367-.01-2.167-.015-2.413-.02-.347-.192-.578-.488-.64a2.095 2.095 0 0 0-.457-.05c-.116 0-.192-.03-.192-.105 0-.055.081-.09.252-.09.232 0 .538.01.946.01h1.433c.315 0 .558-.01.72-.01.169 0 .25.035.25.09 0 .07-.076.1-.21.13-.113 0-.208.01-.312.025-.262.027-.404.258-.429.64-.015.252-.02 1.06-.02 2.413v1.61c0 2.152.775 3.242 2.328 3.242.65 0 1.177-.2 1.595-.618.275-.261.467-.673.573-1.192.05-.332.09-.884.09-1.619v-3.836c-.025-.347-.196-.578-.502-.64a2.84 2.84 0 0 0-.357-.024c-.167-.025-.262-.061-.262-.131 0-.055.075-.09.232-.09.32 0 .769.01 1.321.035.167.005.387.005.664-.025.327 0 .534-.01.654-.01.16 0 .237.035.237.09 0 .07-.067.1-.217.13-.11 0-.21.01-.317.025-.262.027-.408.258-.427.64-.015.252-.015 1.06-.015 2.413v1.212c0 .78-.06 1.403-.186 1.876-.167.668-.478 1.182-.9 1.549-.655.548-1.454.82-2.409.82-1.241 0-2.162-.332-2.745-.977-.554-.618-.835-1.559-.835-2.816zm12.671.338v-4.656l-1.699.024c-.603.016-.966.122-1.112.348-.05.095-.095.206-.15.311-.066.131-.121.226-.177.226-.064 0-.095-.07-.095-.186 0-.23.086-.663.241-1.297.04-.17.086-.24.131-.24.046 0 .12.024.247.07.11.04.196.064.245.08.444.03.835.06 1.152.06h4.562c.144 0 .376-.03.683-.06.327-.04.452-.056.418-.056.055 0 .09.086.09.236 0 .434-.02.89-.056 1.323 0 .13-.034.18-.09.18-.071 0-.105-.08-.13-.23l-.006-.121c-.04-.397-.493-.619-1.363-.644l-1.437-.024v4.656c0 1.323.015 2.117.055 2.434.035.301.16.492.347.592.12.04.346.082.7.082.119 0 .175.024.175.09 0 .05-.066.1-.212.1H42.54l-.74-.05c-.161 0-.402.015-.723.03-.327.02-.564.02-.73.02-.151 0-.23-.05-.23-.115 0-.06.195-.117.582-.126.17-.03.287-.257.338-.623.034-.323.05-1.143.05-2.434zm8.945-2.012v2.012c0 .82.015 1.393.03 1.69.036.402.097.658.207.748.192.172.653.246 1.384.246.51 0 .864-.05 1.095-.155.312-.15.498-.418.553-.84.01-.1.056-.17.127-.17.05 0 .095.07.095.205 0 .459-.061.886-.182 1.302-.046.157-.13.237-.27.277-.057.01-.213.01-.448.01-.372 0-.94 0-1.686-.015a37.979 37.979 0 0 0-1.664-.05c-.166 0-.401.015-.718.03-.323.02-.564.02-.73.02-.15 0-.23-.05-.23-.115 0-.06.2-.117.607-.126.172-.03.282-.257.332-.623.036-.308.055-1.111.055-2.434v-2.002c0-1.348-.004-2.132-.02-2.423-.025-.281-.105-.448-.266-.568-.101-.062-.317-.111-.62-.111-.13 0-.19-.03-.19-.106 0-.055.092-.09.257-.09.196 0 .482.01.88.01h1.472c.348 0 .614-.01.789-.01.152 0 .237.035.237.09 0 .07-.097.106-.292.13-.12 0-.241.01-.363.025-.25.027-.4.258-.416.64a74.42 74.42 0 0 0-.026 2.403zm6.361 2.012v-2.002c0-1.352-.004-2.161-.014-2.393-.036-.367-.197-.598-.489-.649a2.077 2.077 0 0 0-.452-.035c-.125 0-.186-.03-.186-.116 0-.065.07-.105.241-.105.237 0 .543.01.941.035h3.594a9.38 9.38 0 0 0 .67-.135c.05 0 .076.04.076.11 0 .08-.015.21-.03.362-.046.18-.046.296-.046.361-.03.317-.06.564-.081.776-.004.074-.05.114-.11.114s-.116-.114-.126-.36c-.055-.348-.311-.559-.824-.62-.242-.035-.785-.049-1.625-.049-.06 0-.09.05-.09.11v2.901c0 .08.03.116.09.116 1.016 0 1.625-.006 1.841-.03.145 0 .251-.006.302-.04.105 0 .19-.046.251-.122.085-.1.156-.15.18-.15.061 0 .076.036.076.086 0 .1 0 .226-.024.421a2.676 2.676 0 0 0-.051.397c-.04.448-.06.706-.06.776 0 .146-.036.205-.106.205-.066 0-.1-.059-.125-.205 0-.097-.006-.197-.015-.277-.061-.272-.268-.433-.65-.463-.221-.036-.759-.036-1.634-.036-.045 0-.076.036-.076.112v2.665c0 .391.095.647.283.769.161.121.528.176 1.11.176.528 0 .881-.036 1.077-.125.271-.127.437-.397.518-.85.025-.107.07-.156.125-.156.056 0 .091.065.091.195 0 .463-.045.89-.146 1.263-.03.151-.11.231-.231.271-.046.01-.171.01-.393.01-.342 0-.885 0-1.589-.015a35.275 35.275 0 0 0-1.589-.05c-.16 0-.406.015-.718.03-.322.02-.569.02-.73.02-.156 0-.236-.05-.236-.115 0-.06.206-.117.604-.126.175-.03.271-.257.326-.623.04-.308.05-1.111.05-2.434zm9.666 0v-4.656l-1.706.024c-.614.016-.97.122-1.117.348l-.144.311c-.076.131-.137.226-.177.226-.055 0-.095-.07-.095-.186 0-.23.075-.663.241-1.297.03-.17.076-.24.131-.24.044 0 .12.024.241.07.11.04.196.064.247.08.448.03.824.06 1.15.06h4.562c.146 0 .378-.03.684-.06.317-.04.452-.056.406-.056.076 0 .106.086.106.236 0 .434-.025.89-.06 1.323 0 .13-.025.18-.09.18-.066 0-.11-.08-.13-.23l-.016-.121c-.025-.397-.488-.619-1.348-.644l-1.443-.024v4.656c0 1.323.016 2.117.056 2.434.04.301.155.492.351.592.116.04.347.082.694.082.116 0 .181.024.181.09 0 .05-.076.1-.21.1H67.5l-.738-.05c-.167 0-.408.015-.73.03-.327.02-.559.02-.73.02-.14 0-.226-.05-.226-.115 0-.06.192-.117.589-.126.175-.03.287-.257.332-.623.034-.323.06-1.143.06-2.434zm0 0"/></svg>