<svg xmlns="http://www.w3.org/2000/svg" width="500" height="85.565" viewBox="0 0 375 64.174"><path fill="#f57215" d="m100.826 23.452 6-11.895s-4.709-3.17-11.635-4.187c0 0-6.548-1.357-12.182 1.67 0 0-4.983 2.256-7.057 8.347 0 0-1.526 4.383-.665 8.83 0 0 .326 4.253 4.409 7.122 0 0 1.995 1.787 8.021 3.365 0 0 4.213 1.122 4.787 1.735 0 0 .979.509 1.279 1.24 0 0 .56 1.108-.43 2.19 0 0-.6 1.122-3.3 1.2 0 0-2.244.092-4.944-1.2 0 0-2.596-1.252-4.252-2.765l-1.644-1.474-6.34 12.092s3.47 2.595 5.675 3.456c0 0 3.6 1.84 8.504 2.413 0 0 4.291.522 7.983-.404 0 0 3.6-.56 7.082-3.117 0 0 3.861-2.322 5.179-7.579 0 0 1.017-2.478.691-7.852 0 0-.065-4.317-4.122-7.813 0 0-2.008-2.009-6.822-3.522 0 0-3.6-.952-3.926-1.017 0 0-2.83-.796-3.495-1.683 0 0-.913-.77-.157-1.8 0 0 .522-.821 2.296-1.134 0 0 1.46-.196 3.013.286 0 0 1.474.327 3.091 1.213 0 0 .757.261 2.505 1.866zm69.457 31.488H156.3L139.983 8.477h14.152l9.156 26.309 9.157-26.309H186.6zM187.76 8.478h27.51V20.87h-13.93v4.513h13.186v12.39H201.34v4.631h13.93V54.94h-27.508zm159.731 0H375V20.87h-13.93v4.513h13.187v12.39H361.07v4.631H375V54.94h-27.509zM229.07 21.157h12.834l-16.578 33.782h34.083V42.117h-13.474l16.239-33.639H229.07zm29.27 10.473c0-13.617 11.047-24.652 24.664-24.652 13.618 0 24.666 11.035 24.666 24.652 0 13.618-11.048 24.666-24.666 24.666-13.617 0-24.665-11.048-24.665-24.666m24.665 11.674c6.444 0 11.661-5.23 11.661-11.674 0-6.443-5.217-11.66-11.66-11.66-6.444 0-11.662 5.217-11.662 11.66 0 6.444 5.218 11.674 11.661 11.674zm26.505 11.636h11.804V34.851l11.165 20.087h11.348V8.48H332.01v20.047L320.726 8.478H309.51zm-171.952 0h14.165L135.404 8.477H121.41L105.09 54.94h14.166l1.786-5.609h14.727l1.787 5.61m-12.9-16.931 3.756-11.726 3.744 11.726zm0 0"/><path fill="#1b3072" d="M59.178 64.174a4.999 4.999 0 0 0 4.996-5.009V4.995A4.988 4.988 0 0 0 59.178 0H5.008A4.999 4.999 0 0 0 0 4.996v54.17a5.01 5.01 0 0 0 5.009 5.008zm0 0"/><path fill="#f57215" d="m11.413 37.252.848.678c2.96 2.387 6.691 4.318 11.035 4.318 1.865 0 4.97-.678 5.347-2.805.379-2.139-2.073-2.321-3.743-2.634l-3.691-.626c-7.174-1.187-12.692-5.14-11.361-12.522C11.87 12.457 24.26 6.196 35.596 6.196c5.934 0 11.165 1.317 15.77 4.134l-7.293 12.08c-2.883-1.996-6.261-3.561-10.344-3.561-1.656 0-4.173.56-4.526 2.504-.313 1.748 1.983 1.996 3.379 2.309l4.134.874c7.722 1.63 12.835 5.517 11.387 13.526C46.083 49.33 33.744 54.9 22.474 54.9c-6.56 0-13.878-1.63-19.265-4.317zm0 0"/><path fill="#fff" d="M33.822 28.878h27.143L44.557 48.835h11.765l-1.774 8.922H25.8l16.435-20.061H32.087zm0 0"/></svg>